<svg xmlns="http://www.w3.org/2000/svg" viewBox="0 0 31.28 61.49"><defs><style>.cls-1{fill:#303f9f;}</style></defs><title>leader</title><g id="Capa_2" data-name="Capa 2"><g id="Capa_1-2" data-name="Capa 1"><path class="cls-1" d="M23.38,38.23a4.52,4.52,0,0,0-.18-.84,148.21,148.21,0,0,0-6.09-16.5,68.21,68.21,0,0,0,7.33-2.1A2.9,2.9,0,0,0,26.57,16,39.69,39.69,0,0,0,24,3.1,2.7,2.7,0,0,0,23.15,2l.68-.5L22.79,0,15.06,5l1.34,2,2.32-1.68a2.71,2.71,0,0,0,.22.78,26.09,26.09,0,0,1,1.67,7.91A23.86,23.86,0,0,1,12,15.52a2.63,2.63,0,0,0-1.83.54A2.91,2.91,0,0,0,8.36,17.3,87.15,87.15,0,0,0,.27,31.72c-1.48,3.39,3.52,6.35,5,2.93a82.24,82.24,0,0,1,4.38-8.57,130.51,130.51,0,0,1,4.67,13C12.19,45.31,10.16,51.59,8,57.83c-1.23,3.54,4.38,5.05,5.6,1.54,1.91-5.49,3.72-11,5.58-16.52l.46-.05a29.54,29.54,0,0,1,5.85,15.89c.22,3.72,6,3.74,5.8,0A36,36,0,0,0,23.38,38.23Z"/><circle class="cls-1" cx="7.08" cy="11.25" r="4.84"/><circle class="cls-1" cx="14.05" cy="7.1" r="1.78"/></g></g></svg>