<svg xmlns="http://www.w3.org/2000/svg" viewBox="0 0 227.53 270.8"><defs><style>.cls-1{fill:#303f9f;}</style></defs><title>micro</title><g id="Capa_2" data-name="Capa 2"><g id="Capa_1-2" data-name="Capa 1"><path class="cls-1" d="M168.62,98.53l-52-52c.07-1.23.2-2.46.36-3.68.08-.62.17-1.24.27-1.85l0-.16c.1-.59.22-1.18.34-1.76a1.55,1.55,0,0,1,0-.23c.12-.58.25-1.15.4-1.72l.06-.23c.15-.58.3-1.15.47-1.73,0,0,0-.09,0-.13a48.66,48.66,0,0,1,2.69-7c.06-.12.11-.25.17-.37.2-.41.41-.81.62-1.21l.37-.71q.28-.53.6-1.05c.15-.28.31-.56.48-.83s.39-.64.59-1,.38-.6.58-.89l.6-.89.67-.94.6-.8.78-1c.2-.23.39-.48.58-.71s.63-.73.95-1.1c.17-.19.33-.38.51-.57.5-.55,1-1.09,1.54-1.62a50.12,50.12,0,0,1,7.74-6.32,49.16,49.16,0,0,1,6.36-3.55A50.2,50.2,0,0,1,151.85,2a49.47,49.47,0,0,1,28.07,0A48.88,48.88,0,0,1,193,8.12a50.12,50.12,0,0,1,7.74,6.32,49.32,49.32,0,0,1,0,69.73c-.53.53-1.07,1-1.62,1.54-.19.18-.38.34-.57.51l-1.09,1-.72.58c-.33.26-.66.53-1,.78l-.81.6-.94.67-.88.6-.89.58c-.32.2-.64.4-1,.59s-.54.32-.82.48-.7.41-1.06.6l-.7.37c-.4.21-.8.42-1.21.62l-.36.16a49.12,49.12,0,0,1-7,2.71l-.11,0c-.58.17-1.16.33-1.75.48l-.21,0c-.57.15-1.15.28-1.73.4l-.22,0c-.59.12-1.18.24-1.77.34l-.15,0-1.86.27h0C171.08,98.34,169.85,98.46,168.62,98.53Zm36.85,76.73a46.16,46.16,0,0,0-65.3,0L68.76,246.67a31.18,31.18,0,0,1-44.1,0l-.55-.54a31.22,31.22,0,0,1,0-44.1l19-19,5.38,5.38a7.5,7.5,0,0,0,5.3,2.19A7.42,7.42,0,0,0,58.43,189l100-79.51c-.13-.12-.27-.23-.39-.35l-52-52c-.16-.16-.29-.32-.43-.48L25.54,156a7.52,7.52,0,0,0,.54,10l6.39,6.39-19,19a46.25,46.25,0,0,0,0,65.32l.55.54a46.16,46.16,0,0,0,65.3,0l71.41-71.41a31.19,31.19,0,0,1,44.1,0l19.86,19.87a7.5,7.5,0,0,0,10.6-10.61Z"/></g></g></svg>